<?xml version="1.0" ?><svg enable-background="new 0 0 52 52" id="Layer_1" version="1.1" viewBox="0 0 52 52" xml:space="preserve" xmlns="http://www.w3.org/2000/svg" xmlns:xlink="http://www.w3.org/1999/xlink"><g><g><g><path d="M39.9028778,49.9233398c-3.6220703,0-7.0966797-2.1289063-9.3935528-5.7236328h-9.0195313     c-2.4902344,3.8969727-6.3613291,6.0712891-10.3115244,5.6772461C8.67241,49.6225586,6.375535,48.3129883,4.7114725,46.1904297     c-2.1835938-2.7866211-3.1132813-6.6762695-2.5507813-10.6723633     c0.9853516-7.0014648,6.2675781-12.0834961,12.5605469-12.0834961c0.7246094,0,1.2880869,0.5092773,1.8857431,1.0488281     c0.46875,0.4238281,1.0517578,0.9511719,1.4609375,0.9511719h15.8583965c0.4150391,0,1.0019531-0.5297852,1.4736328-0.9550781     c0.5947266-0.5375977,1.1572266-1.0449219,1.8789063-1.0449219c6.2919922,0,11.5742188,5.0820313,12.5605469,12.0834961     c0.5625,3.996582-0.3681641,7.887207-2.5517578,10.6733398c-1.6640625,2.1220703-3.9599609,3.4311523-6.4658203,3.6855469     C40.5142059,49.9077148,40.2075653,49.9233398,39.9028778,49.9233398z M20.3579578,42.199707H31.641161L31.9312,42.6933594     c2.0732403,3.5297852,5.3603497,5.5385742,8.6894512,5.1933594c1.9873047-0.2016602,3.7480469-1.2143555,5.0927734-2.9291992     c1.8505859-2.3608398,2.6328125-5.699707,2.1455078-9.1606445c-0.8408203-5.9677734-5.2412109-10.309082-10.4833984-10.3618164     c-0.1474609,0.0883789-0.4375,0.3500977-0.6357422,0.5288086c-0.6875,0.6206055-1.6289063,1.4707031-2.8134766,1.4707031     H18.0679188c-1.1787109,0-2.0791025-0.8134766-2.8027353-1.4672852     c-0.1992188-0.1801758-0.4912109-0.4438477-0.6396484-0.5322266C9.3823709,25.4873047,4.9810038,29.8291016,4.14116,35.796875     c-0.4873047,3.4604492,0.2939453,6.7988281,2.1445313,9.159668c1.3447266,1.715332,3.1064453,2.7285156,5.09375,2.9301758     c3.3300781,0.3398438,6.6152353-1.6640625,8.6884775-5.1933594L20.3579578,42.199707z" fill="#0096E6"/></g></g><g><g><g><g><rect fill="#0096E6" height="3.0053711" width="2" x="35.9995575" y="29.6669922"/></g></g><g><g><rect fill="#0096E6" height="3.0053711" width="2" x="35.9995575" y="40.6855469"/></g></g></g><g><g><g><rect fill="#0096E6" height="2" width="3" x="40.9995575" y="35.6791992"/></g></g><g><g><rect fill="#0096E6" height="2" width="3" x="29.9995594" y="35.6791992"/></g></g></g></g><g><g><g><rect fill="#0096E6" height="10.0170898" width="2" x="12.9995584" y="31.6704102"/></g></g><g><g><rect fill="#0096E6" height="2" width="10" x="8.9995584" y="35.6791992"/></g></g></g><g><g><path d="M26.8823719,26.9047852l-1.765625-0.9404297     c2.0429688-3.8344727,0.8896484-8.5917969-2.6806641-11.065918l-0.1572266-0.1083984     c-2.0976563-1.4541016-3.0097656-4.1625977-2.2167969-6.5878906c0.5488281-1.6826172-0.1083984-3.4990234-1.5947266-4.4321289     l1.0644531-1.6933594c2.2636719,1.421875,3.265625,4.1899414,2.4355469,6.730957     c-0.5244141,1.6069336,0.0732422,3.3842773,1.4492188,4.3378906l0.1572266,0.1083984     C27.9800282,16.3066406,29.4019032,22.1748047,26.8823719,26.9047852z" fill="#0096E6"/></g></g></g></svg>